<svg width="67" height="64" viewBox="0 0 67 64" fill="none" xmlns="http://www.w3.org/2000/svg">
<path d="M45.7375 16.6478C42.2425 21.7852 36.2371 21.9829 33.3957 27.5903C30.5543 21.9829 24.5483 21.7852 21.054 16.6478C21.3622 17.7551 21.2859 18.5757 21.0003 19.1347C20.763 19.5993 20.825 20.1613 21.1356 20.58C23.5441 23.8235 29.2627 25.113 32.3051 28.7435V29.167C32.3051 29.7636 32.7881 30.2474 33.3838 30.2474C33.388 30.2474 33.3921 30.2474 33.3963 30.2468C33.4005 30.2468 33.4047 30.2474 33.4088 30.2474C34.0045 30.2474 34.4875 29.7636 34.4875 29.167V28.7435C37.5096 25.1375 43.171 23.8415 45.6075 20.6463C45.9545 20.1912 45.9951 19.5802 45.7565 19.06C45.5007 18.5034 45.4435 17.7067 45.7387 16.6478H45.7375Z" fill="#51C6DC"/>
<path d="M28.0774 28.8439C24.1167 27.0558 22.648 24.342 22.648 24.342C22.648 24.342 20.2002 25.3525 23.6122 28.2646C25.9259 30.2391 23.6719 30.4636 21.7726 29.0966C19.874 27.7295 18.4202 25.3227 17.8561 23.2126C17.6379 22.395 16.6384 21.7213 15.8513 22.2272C17.1095 30.0605 23.8889 36.0442 32.0649 36.0442C32.0649 36.0442 33.5068 31.295 28.0774 28.8433V28.8439Z" fill="#51C6DC"/>
<path d="M38.6877 28.8439C42.6483 27.0558 44.117 24.342 44.117 24.342C44.117 24.342 46.5649 25.3525 43.1528 28.2646C40.8392 30.2391 43.0932 30.4636 44.9924 29.0966C46.8911 27.7295 48.3449 25.3227 48.909 23.2126C49.1272 22.395 50.1266 21.7213 50.9137 22.2272C49.6555 30.0605 42.8761 36.0442 34.7002 36.0442C34.7002 36.0442 33.2583 31.295 38.6877 28.8433V28.8439Z" fill="#51C6DC"/>
<path d="M33.0126 25.6983C33.0126 25.6983 32.3829 23.6857 27.2958 20.7144C22.2087 17.7432 21.1204 15.0509 21.1204 15.0509C21.1204 15.0509 20.8258 13.5554 21.1204 13.0573C22.2743 15.0963 24.5778 17.349 27.8843 19.3778C32.4985 22.2099 33.0126 25.6983 33.0126 25.6983Z" fill="#51C6DC"/>
<path d="M33.3956 25.9246C33.3956 25.9246 34.0253 23.912 39.1124 20.9407C44.1995 17.9695 45.2878 15.2772 45.2878 15.2772C45.2878 15.2772 45.5823 13.7817 45.2878 13.2836C44.1339 15.3226 41.8304 17.5753 38.5239 19.6041C33.9096 22.4362 33.3956 25.9246 33.3956 25.9246Z" fill="#51C6DC"/>
<path d="M17.2549 21.2077C17.2192 21.0256 17.1864 20.8416 17.1572 20.6571C17.0588 20.0449 16.9956 19.4238 16.9657 18.8033H19.964C20.1947 18.1893 20.2669 17.6619 20.2669 17.2409H16.9651C17.085 14.6782 17.7934 12.2677 18.9568 10.1404C19.6915 10.5011 20.9837 11.0739 22.7529 11.6239C22.6217 12.1788 22.5078 12.7443 22.4112 13.3189C22.7559 13.7202 23.2019 14.2058 23.7768 14.7803C23.8889 13.8456 24.0481 12.9331 24.2544 12.051C25.066 12.2612 25.9509 12.4577 26.905 12.6243C28.7768 12.9516 30.6814 13.1236 32.6009 13.1427V17.2415H26.5299C27.4184 17.9164 28.2192 18.4037 28.9259 18.8039H32.6009V21.7811C33.1412 22.6184 33.3958 23.2921 33.3958 23.2921L34.1608 22.2582V18.8033H37.6486C38.5705 18.3141 39.4018 17.7838 40.1448 17.2409H34.1608V13.1236C34.9229 13.0979 35.6862 13.0507 36.4501 12.9767C38.4572 12.782 40.468 12.4188 42.4686 11.8903C42.691 12.8118 42.8621 13.768 42.9808 14.7481C43.5401 14.158 43.9868 13.6163 44.3249 13.1726C44.2241 12.592 44.1054 12.0217 43.9689 11.4621C45.245 11.0715 46.5151 10.6122 47.7763 10.0878C48.9564 12.2277 49.6749 14.6573 49.796 17.2409H46.7232C46.6046 17.8345 46.6845 18.4019 46.7852 18.8033H49.796C49.7543 19.6878 49.6427 20.5543 49.4662 21.3976C50.1162 21.1808 50.6588 21.1796 51.0822 21.2627C51.2736 20.2109 51.3744 19.1282 51.3744 18.0221C51.375 8.08473 43.3028 0 33.3809 0C23.4589 0 15.3867 8.08473 15.3867 18.0221C15.3867 18.9836 15.4642 19.9535 15.6169 20.9049C15.63 20.9867 15.6449 21.068 15.6586 21.1492C16.2424 20.8177 16.8059 20.9521 17.2544 21.2077H17.2549ZM46.9468 8.74169C45.7906 9.2141 44.657 9.61544 43.5503 9.95407C43.0327 8.30272 42.3529 6.7744 41.524 5.42167C40.8794 4.37054 40.1668 3.46275 39.4018 2.70546C42.4781 3.92262 45.1025 6.04459 46.9474 8.74109L46.9468 8.74169ZM34.1608 1.61551C36.4161 1.91891 38.5347 3.53323 40.1949 6.23988C40.951 7.47317 41.5717 8.87009 42.0488 10.3811C39.1972 11.1282 36.5443 11.4681 34.1608 11.5541V1.61551ZM32.6015 1.61551V11.575C30.5669 11.5564 28.7643 11.3606 27.2455 11.0978C26.3152 10.9371 25.4524 10.746 24.6623 10.5411C25.1459 8.96804 25.7845 7.51676 26.5681 6.23988C28.2282 3.53382 30.3469 1.91891 32.6021 1.61551H32.6015ZM27.3606 2.70546C26.5955 3.46275 25.8829 4.37054 25.2383 5.42167C24.3826 6.81681 23.6855 8.39947 23.162 10.1117C21.6181 9.62679 20.4637 9.1275 19.7755 8.79902C21.6223 6.07505 24.2621 3.93158 27.3606 2.70546Z" fill="#212121"/>
<path d="M9.15927 53.3735C9.15927 54.2335 9.11156 55.0457 8.53911 55.9057C7.75198 57.1002 6.44011 57.6974 4.55578 57.6974C2.95768 57.6974 1.74121 57.2196 0.930238 56.3119C0.0477045 55.2846 0 54.3051 0 53.1824V47.855C0 46.0395 0.477045 45.1794 1.97974 45.1794C3.48243 45.1794 3.98333 46.0633 3.98333 47.855V52.9435C3.98333 54.8307 4.29341 55.8818 5.8438 55.8818C6.94101 55.8818 7.70428 55.0935 7.70428 53.9229C7.70428 52.609 6.82175 52.5373 5.86766 51.8923C5.27135 51.4862 5.19979 50.7695 5.19979 49.7423V47.855C5.19979 46.0395 5.67684 45.1794 7.17953 45.1794C8.68222 45.1794 9.15927 46.0633 9.15927 47.855V53.3735Z" fill="#212121"/>
<path d="M10.5896 49.5751C10.5896 48.5001 10.6373 47.5445 11.5198 46.565C12.3547 45.6333 13.5711 45.1794 15.2169 45.1794C16.6004 45.1794 17.6737 45.5378 18.4847 46.2545C19.7489 47.3534 19.7489 48.5717 19.7489 50.029V55.0218C19.7489 56.8374 19.2718 57.6974 17.7691 57.6974C16.2664 57.6974 15.7894 56.8135 15.7894 55.0218V49.9334C15.7894 48.0462 15.4793 46.995 13.9289 46.995C12.8317 46.995 12.0684 47.7834 12.0684 48.954C12.0684 50.2679 12.9271 50.3634 13.8812 51.0084C14.4775 51.4145 14.5729 52.1073 14.5729 53.1346V55.0218C14.5729 56.8374 14.072 57.6974 12.5693 57.6974C11.0666 57.6974 10.5896 56.8135 10.5896 55.0218V49.5751Z" fill="#212121"/>
<path d="M23.1602 45.18C24.6629 45.18 25.1637 46.0639 25.1637 47.8556V55.0224C25.1637 56.838 24.6629 57.698 23.1602 57.698C21.6575 57.698 21.1804 56.8141 21.1804 55.0224V47.8556C21.1804 46.04 21.6575 45.18 23.1602 45.18ZM23.184 40.1633C24.1858 40.1633 24.9968 40.9755 24.9968 41.9789C24.9968 42.9822 24.1858 43.7944 23.184 43.7944C22.1822 43.7944 21.3474 42.9822 21.3474 41.9789C21.3474 40.9755 22.1822 40.1633 23.184 40.1633Z" fill="#212121"/>
<path d="M34.99 52.3462H35.3478C35.8964 52.3462 36.1349 52.5373 36.1349 53.0629C36.1349 53.5884 35.8964 53.7796 35.3478 53.7796H34.99C34.4176 53.7796 34.2983 54.114 34.2983 54.7351V55.0218C34.2983 56.8374 33.8212 57.6974 32.3186 57.6974C30.8159 57.6974 30.3388 56.8135 30.3388 55.0218V54.7351C30.3388 54.0662 30.2434 53.7557 29.5278 53.7557H26.8564C26.427 53.7557 26.1647 53.5407 26.1647 53.1345C26.1647 52.9673 26.2601 52.7045 26.427 52.4179L32.8195 41.0466C33.1295 40.4732 33.3203 40.1627 33.7735 40.1627C34.2506 40.1627 34.2983 40.3777 34.2983 40.736V51.3906C34.2983 52.0117 34.4176 52.3462 34.99 52.3462ZM30.4819 49.6467C30.4819 49.4078 30.315 49.2406 30.1241 49.2406C29.8618 49.2406 29.6471 49.3839 29.4801 49.6467L28.4068 51.4862C28.3352 51.5817 28.3114 51.7012 28.3114 51.7967C28.3114 52.1073 28.5499 52.3462 28.8838 52.3462H29.7187C30.3627 52.3462 30.4819 51.9879 30.4819 51.2712V49.6467Z" fill="#51C6DC"/>
<path d="M41.5496 45.1801C44.4834 45.1801 46.1292 46.5895 46.1292 48.8351C46.1292 50.8179 44.7458 52.1079 42.933 52.1079H40.4762C39.1643 52.1079 38.3057 52.8485 38.3057 53.9235C38.3057 55.2136 39.1882 56.0975 40.2615 56.0975C41.4065 56.0975 41.8358 55.4524 42.2651 54.3774C42.6468 53.4219 43.0761 52.8007 44.2926 52.8007C45.2467 52.8007 46.0099 53.613 46.0099 54.7597C46.0099 56.2408 44.1972 57.698 41.5257 57.698C38.5203 57.698 37.0176 56.2647 37.0176 53.4219V49.4562C37.0176 46.6134 38.5203 45.1801 41.5496 45.1801ZM42.6945 50.7696C43.8871 50.7696 44.6981 50.0051 44.6981 48.8106C44.6981 47.7356 43.9348 47.0189 42.8853 47.0189C41.7404 47.0189 41.001 47.7117 41.001 48.954V50.7696H42.6945Z" fill="#212121"/>
<path d="M54.405 40.1633C55.9077 40.1633 56.4086 41.0233 56.4086 42.815V53.4218C56.4086 56.2646 54.9059 57.698 51.8767 57.698C50.3263 57.698 48.9905 57.2202 48.275 56.5274C47.4163 55.7152 47.3447 54.8552 47.3447 53.6607V49.2173C47.3447 46.3745 48.6566 45.2278 52.4253 45.18V42.815C52.4253 40.9994 52.9023 40.1633 54.405 40.1633ZM53.1885 47.1151C51.662 47.1151 51.3281 47.9512 51.3281 49.4323V53.2546C51.3281 55.0463 51.7574 55.8824 53.1885 55.8824C54.7151 55.8824 55.0729 54.9985 55.0729 53.3979V49.5518C55.0729 47.8795 54.5958 47.1151 53.1885 47.1151Z" fill="#212121"/>
<path d="M66.999 53.3735C66.999 54.2335 66.9513 55.0457 66.3789 55.9057C65.5918 57.1002 64.2799 57.6974 62.3956 57.6974C60.7975 57.6974 59.581 57.2196 58.77 56.3119C57.8875 55.2846 57.8398 54.3051 57.8398 53.1824V47.855C57.8398 46.0395 58.3168 45.1794 59.8195 45.1794C61.3222 45.1794 61.8231 46.0633 61.8231 47.855V52.9435C61.8231 54.8307 62.1332 55.8818 63.6836 55.8818C64.7808 55.8818 65.5441 55.0935 65.5441 53.9229C65.5441 52.609 64.6615 52.5373 63.7074 51.8923C63.1111 51.4862 63.0396 50.7695 63.0396 49.7423V47.855C63.0396 46.0395 63.5166 45.1794 65.0193 45.1794C66.522 45.1794 66.999 46.0633 66.999 47.855V53.3735Z" fill="#212121"/>
</svg>
